<svg width="22" height="22" viewBox="0 0 22 22" fill="none" xmlns="http://www.w3.org/2000/svg">
<path d="M7.19802 1.03312C6.97223 1.09316 6.77786 1.25195 6.66791 1.4669C6.54029 1.71671 6.38322 2.22407 6.31843 2.59975C6.1967 3.29302 6.21437 3.93012 6.37536 4.64469L6.39892 4.7512L6.26738 4.93516C5.74512 5.65167 5.42509 6.44757 5.28961 7.36353C5.25034 7.6327 5.25623 8.75393 5.29943 9.13155C5.48399 10.7408 6.00428 11.9298 6.92315 12.8361C7.35509 13.2621 7.73599 13.5351 8.28574 13.814C8.77659 14.0619 9.22816 14.2303 9.78577 14.3736C9.93302 14.4124 10.0646 14.4472 10.0783 14.4511C10.094 14.4569 10.0783 14.5228 10.0312 14.6661C9.9075 15.0475 9.84859 15.4174 9.84859 15.8318V16.0623L9.6287 16.0991C9.45788 16.1281 9.31259 16.1359 9.00434 16.1339C8.63326 16.1339 8.58614 16.13 8.40551 16.0816C8.15027 16.0139 7.85576 15.8686 7.65746 15.7118C7.43363 15.5336 7.22747 15.3128 6.82891 14.821C6.24774 14.1045 5.90611 13.7927 5.48399 13.5894C5.19144 13.4499 4.96762 13.3899 4.78306 13.4015C4.51015 13.419 4.2765 13.5526 4.13318 13.7695C4.02519 13.9341 3.99181 14.0599 4.00163 14.2652C4.01145 14.4705 4.08409 14.6409 4.22546 14.79C4.31184 14.881 4.55138 15.0224 4.6201 15.0224C4.68882 15.0224 4.88908 15.1541 5.02848 15.2896C5.11094 15.3709 5.32103 15.6111 5.49577 15.826C5.66855 16.039 5.89826 16.3101 6.00232 16.4283C6.69932 17.2067 7.46897 17.6308 8.42907 17.7644C8.79033 17.8148 9.52464 17.8032 9.8054 17.7431L9.84859 17.7335V18.4732C9.84859 19.2846 9.86038 19.395 9.96051 19.5751C10.0351 19.7126 10.2315 19.8888 10.3728 19.943C10.5358 20.0088 10.8499 20.0088 11.0129 19.943C11.1542 19.8888 11.3506 19.7126 11.4252 19.5751C11.5371 19.3717 11.5371 19.3814 11.5351 17.3752C11.5332 15.3554 11.5293 15.4368 11.6549 15.096C11.7295 14.8907 11.863 14.6757 12.0496 14.4608C12.1281 14.3698 12.2125 14.2497 12.238 14.1955C12.3794 13.8915 12.3225 13.539 12.0927 13.297C11.918 13.111 11.8002 13.0626 11.4134 13.0084C9.66011 12.7625 8.59399 12.2842 7.88717 11.4302C7.41792 10.8647 7.11752 10.1017 6.99187 9.16834C6.9153 8.58546 6.90548 7.83603 6.97027 7.46035C7.09004 6.76322 7.41007 6.10674 7.88325 5.58195C8.20524 5.22564 8.24451 5.01069 8.08351 4.52075C7.96374 4.15863 7.92055 3.88752 7.92055 3.49054C7.91859 3.18457 7.93233 3.05289 7.98534 2.78759L8.00694 2.68302L8.07762 2.69657C8.20524 2.71981 8.51153 2.82245 8.74517 2.92121C9.1457 3.08968 9.56783 3.32013 10.1431 3.68225C10.255 3.7539 10.3925 3.82361 10.4455 3.83911C10.6065 3.88752 10.8008 3.8759 11.1012 3.80231C11.9082 3.60285 12.5502 3.52152 13.4318 3.50603C14.4292 3.4886 15.1733 3.568 16.1098 3.79069C16.6203 3.91269 16.7774 3.8972 17.1092 3.68225C17.6 3.36467 18.1498 3.06838 18.5503 2.90378C18.7683 2.8147 19.155 2.68689 19.21 2.68689C19.32 2.68689 19.3671 3.69968 19.2768 4.11603C19.2513 4.22447 19.1963 4.42587 19.1531 4.56142C19.0785 4.78799 19.0745 4.82091 19.0804 4.98164C19.0903 5.21596 19.1531 5.34376 19.3808 5.60132C19.8305 6.11062 20.1191 6.68576 20.2545 7.33448C20.3704 7.898 20.339 8.83139 20.174 9.62923C19.8206 11.3392 18.837 12.3151 16.9973 12.776C16.7087 12.8496 16.2414 12.9329 15.7584 12.9968C15.4737 13.0355 15.297 13.113 15.1596 13.264C14.8533 13.599 14.8572 14.0367 15.1713 14.4008C15.4246 14.6951 15.5778 14.9623 15.6641 15.2664C15.7093 15.4194 15.7093 15.4252 15.7191 17.3946C15.7289 19.3679 15.7289 19.3698 15.7721 19.4724C15.8683 19.7068 16.0882 19.9043 16.3258 19.9721C16.4966 20.0224 16.7381 20.003 16.9011 19.9275C17.1288 19.8229 17.3055 19.6177 17.3664 19.3892C17.3782 19.3388 17.388 18.6436 17.388 17.3558C17.3919 15.4581 17.39 15.3942 17.3507 15.1734C17.3095 14.941 17.2309 14.6409 17.1799 14.5208C17.1642 14.484 17.1544 14.453 17.1583 14.4492C17.1602 14.4453 17.2879 14.4124 17.4371 14.3736C19.2375 13.9166 20.4862 13.0123 21.2245 11.6335C21.7526 10.642 22.0373 9.27291 21.9961 7.91543C21.9607 6.80001 21.6152 5.79109 20.9614 4.90224L20.8455 4.74539L20.873 4.63888C20.979 4.2419 21.032 3.62609 21.0006 3.1807C20.9574 2.57264 20.7964 1.91036 20.5844 1.47077C20.4803 1.25389 20.2801 1.09509 20.0327 1.02925C19.8658 0.984712 19.265 0.992458 19.0039 1.04281C18.3186 1.17255 17.549 1.48626 16.7126 1.97813L16.4083 2.15823L16.0981 2.09432C14.5352 1.77093 12.886 1.75931 11.331 2.05947C11.1916 2.08658 11.0266 2.1195 10.9638 2.13499L10.8499 2.16017L10.5201 1.96845C9.69938 1.48626 8.84923 1.1435 8.20131 1.03312C7.95785 0.992458 7.35313 0.992458 7.19802 1.03312Z" fill="#CDD7F4"/>
</svg>
