<svg width="17" height="18" viewBox="0 0 17 18" fill="none" xmlns="http://www.w3.org/2000/svg">
<path d="M2.87096 0.0552833C1.57925 0.241077 0.455637 1.24525 0.0928969 2.53696C0.00442366 2.85546 0 2.93951 0 8.54429C0 14.1845 0 14.2331 0.0928969 14.5605C0.36274 15.5116 1.06168 16.3344 1.95084 16.7458C2.64093 17.0643 2.22068 17.0422 8.49786 17.0422C14.7972 17.0422 14.3592 17.0643 15.067 16.7325C15.7836 16.3963 16.3145 15.8699 16.6595 15.1577C17.0134 14.4278 17.009 14.5074 16.9957 11.7072C16.9869 9.23439 16.9869 9.22996 16.8851 9.0309C16.8276 8.91588 16.7082 8.77875 16.5976 8.69912C16.4251 8.57968 16.3764 8.56641 16.0446 8.56641C15.7173 8.56641 15.6598 8.57968 15.5005 8.69027C15.4032 8.75663 15.2793 8.89376 15.2174 8.99993L15.1112 9.18573L15.0847 11.5303C15.067 13.5607 15.0537 13.9058 14.9874 14.1004C14.8281 14.5826 14.5185 14.8878 14.0319 15.0382C13.8018 15.109 13.3772 15.1134 8.49786 15.1134C3.61856 15.1134 3.19389 15.109 2.96385 15.0382C2.4684 14.8834 2.15875 14.5737 2.00392 14.0783C1.93314 13.8483 1.92872 13.4236 1.92872 8.54429C1.92872 3.66499 1.93314 3.24032 2.00392 3.01029C2.15432 2.52369 2.45956 2.21403 2.94174 2.05478C3.13638 1.98842 3.48142 1.97515 5.51188 1.95746C8.09973 1.92649 7.97144 1.94419 8.26783 1.63895C8.45362 1.44874 8.51113 1.2541 8.48901 0.90905C8.46689 0.559581 8.30322 0.303008 8.01125 0.157028C7.81219 0.0552833 7.7945 0.0552833 5.44553 0.0420123C4.14497 0.033165 2.98597 0.0420123 2.87096 0.0552833Z" fill="#CED6F3"/>
<path d="M10.9087 0.126057C10.2408 0.475526 10.1788 1.36468 10.7893 1.7982L10.9839 1.93091L12.3376 1.94418L13.6912 1.95745L10.2098 5.43888C7.78119 7.87189 6.71067 8.96896 6.66201 9.08398C6.56026 9.33612 6.57353 9.72983 6.6974 9.96428C6.85222 10.2562 7.1088 10.4155 7.45384 10.4376C7.60867 10.4465 7.81216 10.4332 7.90948 10.4022C8.04661 10.358 8.74998 9.67675 11.5811 6.85003L15.0847 3.35091L15.0979 4.70455L15.1112 6.05819L15.2439 6.25283C15.6686 6.85445 16.5754 6.79694 16.9072 6.15109C16.9913 5.98299 16.9913 5.89894 16.9824 3.30667L16.9691 0.634778L16.8364 0.44456C16.7657 0.342816 16.6152 0.210106 16.5091 0.152599L16.3144 0.0508544H13.6779C11.3644 0.0552781 11.0237 0.0641254 10.9087 0.126057Z" fill="#CED6F3"/>
</svg>
