<svg width="37" height="42" viewBox="0 0 37 42" fill="none" xmlns="http://www.w3.org/2000/svg">
<path fill-rule="evenodd" clip-rule="evenodd" d="M36.3731 10.5L18.1865 0L0 10.5V31.5L18.1865 42L36.3731 31.5V10.5ZM33.775 12L18.1865 3L2.59808 12V30L18.1865 39L33.775 30V12Z" fill="#90FCDC"/>
<path d="M13.3629 28V14.1818H18.5447C19.6063 14.1818 20.4969 14.3662 21.2166 14.7351C21.9408 15.1039 22.4873 15.6212 22.8562 16.2869C23.2295 16.9482 23.4162 17.7196 23.4162 18.6012C23.4162 19.4873 23.2273 20.2565 22.8494 20.9087C22.4761 21.5565 21.9251 22.058 21.1964 22.4134C20.4677 22.7642 19.5726 22.9396 18.511 22.9396H14.8203V20.8615H18.1737C18.7944 20.8615 19.3027 20.776 19.6985 20.6051C20.0943 20.4297 20.3867 20.1755 20.5756 19.8427C20.7691 19.5053 20.8658 19.0915 20.8658 18.6012C20.8658 18.1109 20.7691 17.6926 20.5756 17.3462C20.3822 16.9954 20.0876 16.73 19.6918 16.5501C19.2959 16.3656 18.7854 16.2734 18.1602 16.2734H15.8661V28H13.3629ZM20.5014 21.7386L23.9222 28H21.1289L17.7688 21.7386H20.5014Z" fill="#90FCDC"/>
</svg>
